<?xml version="1.0" standalone="no"?>
<!DOCTYPE svg PUBLIC "-//W3C//DTD SVG 20010904//EN"
 "http://www.w3.org/TR/2001/REC-SVG-20010904/DTD/svg10.dtd">
<svg version="1.0" xmlns="http://www.w3.org/2000/svg"
 width="2px" height="2px" viewBox="0 0 357.00000000 213.000000"
 preserveAspectRatio="xMidYMid meet">

<g transform="translate(0.000000,213.000000) scale(0.100000,-0.100000)"
fill="#000000" stroke="none">
<path d="M2338 1973 c-59 -5 -62 -19 -8 -33 l40 -11 -2 -262 -3 -262 -31 -10
c-65 -21 -28 -30 126 -30 126 0 163 3 199 18 65 27 105 61 137 119 27 49 29
61 29 158 0 120 -14 156 -82 222 -82 79 -204 107 -405 91z m244 -44 c66 -17
130 -69 162 -132 25 -50 30 -69 29 -135 0 -174 -97 -272 -269 -272 -86 0 -84
-7 -84 280 0 288 0 287 79 275 25 -3 62 -11 83 -16z"/>
<path d="M3100 1959 c-59 -26 -106 -72 -138 -134 -37 -71 -43 -206 -13 -285
27 -72 67 -119 132 -155 46 -26 65 -30 129 -30 119 0 203 54 254 164 17 38 21
65 21 151 0 95 -3 110 -27 156 -33 63 -103 126 -156 142 -61 18 -151 14 -202
-9z m187 -30 c160 -77 199 -372 66 -490 -45 -39 -76 -50 -140 -50 -59 0 -95
16 -139 63 -67 71 -101 189 -84 292 11 66 29 104 71 145 62 63 148 78 226 40z"/>
<path d="M160 1961 c0 -5 15 -12 34 -15 21 -4 37 -14 41 -25 8 -27 -23 -503
-34 -514 -5 -5 -23 -12 -41 -16 -65 -13 -34 -26 68 -29 81 -2 103 0 100 10 -3
7 -19 14 -36 16 -18 2 -36 11 -41 20 -5 10 -6 87 -1 187 5 94 9 189 10 213 0
23 4 42 9 42 5 0 50 -104 101 -230 98 -244 112 -271 129 -255 5 6 33 71 61
145 96 255 133 341 141 333 4 -4 11 -106 15 -225 l7 -217 -29 -6 c-47 -11 -54
-14 -54 -25 0 -7 38 -10 113 -8 110 3 144 16 77 29 -18 4 -36 11 -41 16 -10
10 -39 485 -31 515 2 10 18 20 38 24 55 10 39 24 -28 24 l-63 0 -59 -158
c-115 -305 -138 -362 -146 -362 -7 0 -64 135 -161 383 l-53 137 -63 0 c-35 0
-63 -4 -63 -9z"/>
<path d="M920 1960 c0 -6 14 -13 31 -17 20 -4 34 -14 40 -30 5 -13 9 -113 9
-221 0 -236 8 -262 87 -308 43 -26 58 -29 133 -29 111 0 172 28 207 94 22 42
23 54 23 242 0 109 4 209 9 223 7 16 19 26 37 28 15 2 29 9 32 16 3 9 -19 12
-88 12 -69 0 -91 -3 -88 -12 3 -7 14 -14 26 -16 41 -6 43 -21 40 -241 -3 -193
-5 -212 -24 -237 -38 -51 -68 -66 -142 -72 -94 -6 -151 19 -181 82 -19 38 -21
61 -21 243 0 215 0 214 53 227 59 14 24 26 -78 26 -65 0 -105 -4 -105 -10z"/>
<path d="M1610 1962 c0 -6 15 -13 34 -16 19 -4 37 -14 40 -22 3 -9 6 -125 6
-259 0 -264 -2 -275 -56 -275 -15 0 -24 -6 -24 -15 0 -12 17 -15 96 -15 72 0
95 3 92 13 -3 6 -15 14 -29 15 -49 7 -49 9 -49 263 0 132 3 239 8 239 4 0 88
-118 188 -263 99 -144 188 -263 197 -265 16 -3 17 21 17 275 0 153 4 283 8
289 4 6 22 15 40 19 61 13 32 25 -63 25 -95 0 -124 -12 -62 -25 17 -4 35 -13
39 -19 4 -6 8 -114 8 -241 0 -207 -2 -228 -15 -214 -9 9 -89 123 -178 255
l-162 239 -67 3 c-38 2 -68 -1 -68 -6z"/>
<path d="M383 1192 c-6 -4 -18 -59 -27 -122 -10 -63 -26 -153 -37 -200 -19
-84 -20 -86 -61 -105 -60 -29 -100 -83 -106 -144 -5 -57 10 -72 53 -53 45 21
113 195 151 387 6 31 10 9 15 -100 12 -269 53 -308 177 -169 48 53 51 55 61
35 17 -31 74 -28 136 8 57 33 145 108 145 123 0 6 -22 -10 -49 -35 -51 -48
-137 -97 -170 -97 -26 0 -46 35 -29 49 66 52 81 69 75 84 -16 42 -72 10 -115
-65 -44 -79 -115 -150 -143 -146 -48 6 -54 41 -54 305 0 133 -3 244 -5 247 -3
3 -11 2 -17 -2z m300 -374 c-13 -12 -25 -19 -29 -15 -10 10 16 37 34 37 13 0
12 -4 -5 -22z m-430 -146 c-43 -85 -82 -100 -68 -25 8 46 86 130 93 100 2 -10
-9 -44 -25 -75z"/>
<path d="M2593 1149 c-43 -12 -99 -70 -108 -109 -19 -87 34 -171 151 -236 149
-83 188 -139 149 -214 -19 -37 -47 -53 -110 -61 l-50 -6 51 -2 c137 -3 244 74
244 176 0 70 -54 128 -198 212 -82 48 -112 86 -112 144 0 46 35 86 77 88 32 1
77 -2 81 -5 1 -2 -5 -20 -14 -41 -27 -65 3 -125 61 -125 68 0 94 84 42 138
-16 16 -45 34 -66 41 -45 13 -152 13 -198 0z"/>
<path d="M1038 1138 l23 -11 -3 -296 -3 -296 75 3 75 3 -3 287 c-3 283 -2 287
19 305 20 16 17 17 -92 16 -91 0 -109 -3 -91 -11z"/>
<path d="M1533 1139 c15 -9 17 -30 17 -212 0 -111 5 -222 11 -247 22 -95 96
-150 209 -156 53 -3 59 -2 30 5 -43 12 -85 57 -99 108 -6 22 -11 137 -11 266
0 227 0 228 23 237 15 6 -12 9 -88 9 -79 0 -105 -2 -92 -10z"/>
<path d="M1978 1140 c22 -9 22 -11 22 -222 0 -117 -4 -229 -10 -247 -5 -19
-23 -52 -40 -73 -33 -41 -27 -53 8 -15 49 52 55 88 60 322 3 188 6 222 20 233
13 10 8 12 -34 11 -39 0 -45 -2 -26 -9z"/>
<path d="M2170 1137 l25 -13 3 -278 c2 -197 -1 -283 -9 -292 -13 -16 -19 -14
94 -17 56 -2 66 0 61 13 -4 12 -6 156 -4 553 0 19 7 30 23 37 15 6 -16 9 -98
9 -103 1 -116 -1 -95 -12z"/>
<path d="M3128 918 c-53 -128 -109 -263 -124 -300 -14 -38 -30 -68 -35 -68 -5
0 -9 -4 -9 -9 0 -20 40 2 41 23 0 11 14 50 32 86 l32 65 90 3 c50 2 99 1 110
-2 14 -4 29 -28 49 -77 32 -79 66 -109 124 -109 36 0 81 20 101 44 12 14 10
15 -16 10 -18 -4 -33 -1 -40 8 -6 7 -46 96 -88 198 -42 102 -94 224 -114 272
-20 49 -41 88 -46 88 -6 0 -54 -105 -107 -232z m92 -53 c63 -149 68 -135 -49
-135 -56 0 -101 3 -101 6 0 20 95 224 103 221 5 -1 26 -43 47 -92z"/>
<path d="M2488 713 c-46 -53 -24 -119 51 -157 28 -15 58 -26 68 -25 14 0 13 2
-4 9 -27 11 -28 18 -8 56 22 43 19 81 -10 109 -29 29 -75 33 -97 8z"/>
<path d="M1460 623 c0 -30 -7 -47 -26 -67 -25 -24 -25 -26 -6 -26 36 0 54 28
48 77 -6 58 -16 68 -16 16z"/>
<path d="M825 175 l0 -75 27 0 c26 0 27 2 16 25 -6 14 -8 28 -5 31 11 12 37
-5 47 -31 6 -15 17 -25 30 -25 25 0 25 5 1 39 -16 23 -17 29 -6 45 14 18 10
45 -9 58 -6 4 -31 8 -56 8 l-45 0 0 -75z m80 30 c0 -13 -8 -21 -22 -23 -19 -3
-23 1 -23 23 0 22 4 26 23 23 14 -2 22 -10 22 -23z"/>
<path d="M1025 175 l0 -75 56 0 c48 0 57 3 62 20 5 21 -7 28 -18 10 -3 -5 -17
-10 -31 -10 -19 0 -24 5 -24 26 0 21 4 24 20 19 16 -5 20 -2 20 15 0 17 -4 20
-21 15 -17 -6 -20 -3 -17 16 4 29 21 34 42 13 20 -19 29 -14 20 10 -5 12 -19
16 -58 16 l-51 0 0 -75z"/>
<path d="M1223 243 c-27 -10 -14 -53 22 -74 37 -22 45 -43 20 -53 -9 -3 -20 3
-27 14 -13 20 -38 27 -38 11 0 -34 81 -56 108 -29 24 24 14 58 -22 73 -42 18
-53 33 -30 42 10 4 22 0 29 -10 16 -22 25 -21 25 2 0 27 -48 40 -87 24z"/>
<path d="M1377 230 c-7 -26 9 -36 22 -13 26 46 41 -44 17 -99 -7 -15 -3 -18
30 -18 30 0 35 3 26 12 -16 16 -16 118 -1 118 7 0 18 -8 26 -17 12 -17 13 -16
11 7 -3 23 -7 25 -64 28 -55 3 -62 1 -67 -18z"/>
<path d="M1597 213 c-4 -21 -15 -55 -26 -75 -18 -37 -18 -38 0 -38 12 0 19 7
19 20 0 16 7 20 30 20 23 0 30 -4 30 -20 0 -15 7 -20 30 -20 29 0 29 0 14 28
-8 15 -23 48 -34 75 -25 61 -54 65 -63 10z m36 -33 c4 -15 0 -20 -15 -20 -14
0 -18 5 -14 16 3 9 6 20 6 25 0 17 17 1 23 -21z"/>
<path d="M1758 198 c6 -75 23 -98 72 -98 47 0 56 12 62 93 4 47 2 57 -11 57
-13 0 -16 -12 -16 -62 l0 -63 -30 0 -30 0 0 63 c0 60 -1 62 -26 62 -25 0 -26
-1 -21 -52z"/>
<path d="M1976 206 c4 -25 2 -58 -4 -75 -11 -30 -10 -31 18 -31 27 0 29 2 24
30 -5 24 -3 30 10 30 10 0 21 -13 27 -30 8 -22 17 -30 35 -30 l23 0 -20 34
c-13 22 -16 37 -9 41 14 8 13 48 -2 63 -7 7 -34 12 -60 12 l-48 0 6 -44z m74
-1 c0 -18 -5 -25 -20 -25 -15 0 -20 7 -20 25 0 18 5 25 20 25 15 0 20 -7 20
-25z"/>
<path d="M2212 213 c-6 -21 -20 -55 -31 -75 l-19 -38 23 0 c18 0 22 4 18 20
-5 17 0 20 26 20 24 0 31 -4 31 -20 0 -16 7 -20 31 -20 24 0 29 3 22 13 -5 6
-18 35 -28 62 -31 86 -55 99 -73 38z m32 -29 c9 -23 8 -24 -13 -24 -14 0 -18
5 -14 20 6 24 19 26 27 4z"/>
<path d="M2385 175 c0 -64 2 -75 17 -75 15 0 16 4 8 26 -14 35 -12 64 3 64 6
-1 28 -21 47 -45 19 -25 38 -45 42 -45 5 0 8 27 8 59 0 33 3 66 6 75 4 11 0
16 -14 16 -18 0 -20 -5 -15 -42 l4 -43 -38 43 c-57 63 -68 57 -68 -33z"/>
<path d="M2577 230 c-6 -24 11 -38 19 -16 3 9 12 16 20 16 10 0 14 -15 14 -55
0 -30 -4 -55 -10 -55 -5 0 -10 -4 -10 -10 0 -5 16 -10 35 -10 34 0 46 12 25
25 -5 3 -10 28 -10 56 0 52 12 62 37 32 12 -17 13 -16 11 7 -3 23 -7 25 -64
28 -55 3 -62 1 -67 -18z"/>
<path d="M2779 243 c-1 -4 -1 -11 0 -15 8 -57 8 -84 1 -104 -9 -24 -9 -24 49
-24 45 0 60 4 65 16 8 22 -1 31 -16 16 -7 -7 -22 -12 -35 -12 -18 0 -23 6 -23
26 0 21 4 24 20 19 16 -5 20 -2 20 15 0 17 -4 20 -21 15 -17 -6 -20 -3 -17 16
4 31 22 34 48 7 l22 -23 -4 25 c-3 23 -8 25 -55 28 -29 2 -54 -1 -54 -5z"/>
<path d="M140 160 c0 -14 507 -14 515 0 4 7 -83 10 -254 10 -167 0 -261 -4
-261 -10z"/>
<path d="M3050 160 c0 -6 93 -10 260 -10 167 0 260 4 260 10 0 6 -93 10 -260
10 -167 0 -260 -4 -260 -10z"/>
</g>
</svg>
